# xmcd
#
# Track frame offsets:
# 150
# 10655
# 22939
# 40377
# 51704
# 58512
# 71627
# 83625
# 91068
# 99610
# 118065
# 135937
# 149288
# 156907
# 163334
# 172525
# 180965
# 197698
# 207554
# 219953
#
# Disc length: 3096 seconds
#
# Revision: 1
# Processed by: cddbd v1.5.1PL0 Copyright (c) Steve Scherf et al.
# Submitted via: Easy CD Ripper v2.26
#
DISCID=0b0c1614
DTITLE=Koerner, -Spider- John, Dave -Snaker- Ray, and Tony -Little Sun- Glover - Blues, Rags and Hollers
DYEAR=1963
DGENRE=Blues
TTITLE0=Linin' Track - Spider, Snaker, Little Sun
TTITLE1=Ramblin' Blues - Spider, Snaker, Little Sun
TTITLE2=It's All Right - Spider, Snaker, Little Sun
TTITLE3=Hangman - Spider, Snaker, Little Sun
TTITLE4=Ted Mack Rag - Spider, Snaker, Little Sun
TTITLE5=Down To Louisiana - Spider, Snaker, Little Sun
TTITLE6=Creepy John - Spider, Snaker, Little Sun
TTITLE7=Bugger Burns - Spider, Snaker, Little Sun
TTITLE8=Sun's Wall - Spider, Snaker, Little Sun
TTITLE9=Dust My Broom - Spider, Snaker, Little Sun
TTITLE10=One Kind Favor - Spider, Snaker, Little Sun
TTITLE11=Go Down Ol' Hannah - Spider, Snaker, Little Sun
TTITLE12=Good Time Charlie - Spider, Snaker, Little Sun
TTITLE13=Banjo Thing - Spider, Snaker, Little Sun
TTITLE14=Stop That Thing - Spider, Snaker, Little Sun
TTITLE15=Too Bad - Spider, Snaker, Little Sun
TTITLE16=Snaker's Here - Spider, Snaker, Little Sun
TTITLE17=Low Down Rounder - Spider, Snaker, Little Sun
TTITLE18=Jimmy Bell - Spider, Snaker, Little Sun
TTITLE19=Mumblin' Word - Spider, Snaker, Little Sun
EXTD=
EXTT0=
EXTT1=
EXTT2=
EXTT3=
EXTT4=
EXTT5=
EXTT6=
EXTT7=
EXTT8=
EXTT9=
EXTT10=
EXTT11=
EXTT12=
EXTT13=
EXTT14=
EXTT15=
EXTT16=
EXTT17=
EXTT18=
EXTT19=
PLAYORDER=
